<?xml version="1.0" encoding="UTF-8"?>
<svg width="16" height="16" viewBox="0 0 16 16" fill="none" xmlns="http://www.w3.org/2000/svg">
  <rect width="16" height="16" fill="#000000"/>
  <path d="M8.21201 2.40002L11.2 13.6C10.9615 13.5385 10.7231 13.4769 10.4846 13.4154L9.58462 11.0154L8.64616 13.2308C8.43077 13.1692 8.24616 13.1385 8.06154 13.0769L9.43077 9.41538L8.12308 5.6L9.21539 5.6L10.0308 7.50769L10.8462 5.6L11.9385 5.6L10.6308 9.41538L8.21201 2.40002Z" fill="#E50914"/>
  <path d="M7.38462 2.40002L6.46154 2.40002L6.46154 12.9846C6.76923 13.0154 7.07692 13.0462 7.38462 13.0769L7.38462 2.40002Z" fill="#E50914"/>
  <path d="M5.63077 12.8923C4.73846 12.8308 3.84615 12.7692 2.95385 12.7385L2.95385 2.40002L3.96923 2.40002L3.96923 11.1692C4.52308 11.2 5.07692 11.2615 5.63077 11.2923L5.63077 12.8923Z" fill="#E50914"/>
</svg>